<svg xmlns="http://www.w3.org/2000/svg" viewBox="0 0 100 100">
  <defs>
    <linearGradient id="grad" x1="0%" y1="0%" x2="100%" y2="100%">
      <stop offset="0%" style="stop-color:#2563eb;stop-opacity:1" />
      <stop offset="100%" style="stop-color:#1e40af;stop-opacity:1" />
    </linearGradient>
  </defs>
  <rect width="100" height="100" rx="20" fill="url(#grad)"/>
  <g transform="translate(20, 20)">
    <!-- Package/Box Icon -->
    <path d="M30 10 L50 5 L70 10 L70 30 L50 35 L30 30 Z" fill="white" opacity="0.9"/>
    <path d="M30 10 L30 30 L50 35 L50 15 Z" fill="white" opacity="0.7"/>
    <path d="M50 15 L50 35 L70 30 L70 10 Z" fill="white" opacity="0.8"/>
    <line x1="30" y1="10" x2="50" y2="5" stroke="white" stroke-width="2" opacity="0.6"/>
    <line x1="50" y1="5" x2="70" y2="10" stroke="white" stroke-width="2" opacity="0.6"/>
    <!-- Sparkle/AI indicator -->
    <circle cx="55" cy="15" r="3" fill="white" opacity="0.9"/>
    <path d="M55 8 L55 12 M55 18 L55 22 M48 15 L52 15 M58 15 L62 15" stroke="white" stroke-width="1.5" opacity="0.7"/>
  </g>
</svg>

